<?xml version="1.0" encoding="UTF-8"?>
<svg version="1.1" xmlns="http://www.w3.org/2000/svg" width="81" height="101">
<path d="M0 0 C1.32 0 2.64 0 4 0 C6.578125 2.1171875 6.578125 2.1171875 9.25 4.875 C10.14203125 5.77992187 11.0340625 6.68484375 11.953125 7.6171875 C14 10 14 10 14 12 C10.04533792 14.17341896 6.08568659 16.33758201 2.125 18.5 C0.99707031 19.12003906 -0.13085938 19.74007812 -1.29296875 20.37890625 C-2.36933594 20.96542969 -3.44570313 21.55195312 -4.5546875 22.15625 C-5.54968262 22.70087891 -6.54467773 23.24550781 -7.56982422 23.80664062 C-10 25 -10 25 -12 25 C-10.3341708 18.83643195 -7.12194714 13.51740344 -4 8 C-13.03885309 7.38165819 -13.03885309 7.38165819 -21.625 9.625 C-26.31562507 14.31562507 -28.88546423 18.24238967 -29 25 C-27.85049423 30.91029074 -25.928217 35.30383725 -21 39 C-15.84301077 41.14063704 -11.33438024 41.51791308 -6 40 C-2.68819268 38.2371888 -2.68819268 38.2371888 0 36 C0.515625 35.59910156 1.03125 35.19820312 1.5625 34.78515625 C3.6625322 32.17723583 4.01103569 29.56597122 4.6875 26.3125 C5.06455078 24.54326172 5.06455078 24.54326172 5.44921875 22.73828125 C5.63097656 21.83464844 5.81273437 20.93101563 6 20 C8.64 20.33 11.28 20.66 14 21 C14.44332072 29.16038507 13.49832605 34.95847277 8.4375 41.625 C2.9730916 47.61561069 -4.45304048 50.73089868 -12.49609375 51.12109375 C-20.57974679 50.73015265 -26.31144039 47.85025902 -32.08203125 42.22265625 C-37.61214834 35.81402769 -38.66396345 29.51259678 -38.390625 21.15625 C-37.57344124 14.55340519 -34.71367726 8.71367726 -30 4 C-20.88762222 -2.62718384 -10.74090243 -4.29636097 0 0 Z " fill="#E4E4E4" transform="translate(52,27)"/>
</svg>
